<svg width="31" height="31" viewBox="0 0 31 31" fill="none" xmlns="http://www.w3.org/2000/svg">
<path d="M13.5 24C13.5 25.103 14.397 26 15.5 26C16.603 26 17.5 25.103 17.5 24C17.5 22.897 16.603 22 15.5 22C14.397 22 13.5 22.897 13.5 24ZM16.5 24C16.5 24.5515 16.0515 25 15.5 25C14.9485 25 14.5 24.5515 14.5 24C14.5 23.4485 14.9485 23 15.5 23C16.0515 23 16.5 23.4485 16.5 24Z" fill="white"/>
<path d="M20.5 7.5H19.5V10H20.5V7.5Z" fill="white"/>
<path d="M26 10.707V4H25V10.293L23.6465 11.6465L24.3535 12.3535L26 10.707Z" fill="white"/>
<path d="M30 13.707V8H29V13.293L27.6465 14.6465L28.3535 15.3535L30 13.707Z" fill="white"/>
<path d="M20 6.5C20.827 6.5 21.5 5.827 21.5 5C21.5 4.173 20.827 3.5 20 3.5C19.173 3.5 18.5 4.173 18.5 5C18.5 5.827 19.173 6.5 20 6.5ZM20 4.5C20.2755 4.5 20.5 4.7245 20.5 5C20.5 5.2755 20.2755 5.5 20 5.5C19.7245 5.5 19.5 5.2755 19.5 5C19.5 4.7245 19.7245 4.5 20 4.5Z" fill="white"/>
<path d="M16 4H15V9.5H16V4Z" fill="white"/>
<path d="M15.5 3C16.327 3 17 2.327 17 1.5C17 0.673 16.327 0 15.5 0C14.673 0 14 0.673 14 1.5C14 2.327 14.673 3 15.5 3ZM15.5 1C15.7755 1 16 1.2245 16 1.5C16 1.7755 15.7755 2 15.5 2C15.2245 2 15 1.7755 15 1.5C15 1.2245 15.2245 1 15.5 1Z" fill="white"/>
<path d="M25.5 3C26.327 3 27 2.327 27 1.5C27 0.673 26.327 0 25.5 0C24.673 0 24 0.673 24 1.5C24 2.327 24.673 3 25.5 3ZM25.5 1C25.7755 1 26 1.2245 26 1.5C26 1.7755 25.7755 2 25.5 2C25.2245 2 25 1.7755 25 1.5C25 1.2245 25.2245 1 25.5 1Z" fill="white"/>
<path d="M29.5 7C30.327 7 31 6.327 31 5.5C31 4.673 30.327 4 29.5 4C28.673 4 28 4.673 28 5.5C28 6.327 28.673 7 29.5 7ZM29.5 5C29.7755 5 30 5.2245 30 5.5C30 5.7755 29.7755 6 29.5 6C29.2245 6 29 5.7755 29 5.5C29 5.2245 29.2245 5 29.5 5Z" fill="white"/>
<path d="M11.5 7.5H10.5V10.5H11.5V7.5Z" fill="white"/>
<path d="M5 4V10.707L6.6465 12.3535L7.3535 11.6465L6 10.293V4H5Z" fill="white"/>
<path d="M1 8V13.707L3.6465 16.3535L4.3535 15.6465L2 13.293V8H1Z" fill="white"/>
<path d="M11 6.5C11.827 6.5 12.5 5.827 12.5 5C12.5 4.173 11.827 3.5 11 3.5C10.173 3.5 9.5 4.173 9.5 5C9.5 5.827 10.173 6.5 11 6.5ZM11 4.5C11.2755 4.5 11.5 4.7245 11.5 5C11.5 5.2755 11.2755 5.5 11 5.5C10.7245 5.5 10.5 5.2755 10.5 5C10.5 4.7245 10.7245 4.5 11 4.5Z" fill="white"/>
<path d="M5.5 3C6.327 3 7 2.327 7 1.5C7 0.673 6.327 0 5.5 0C4.673 0 4 0.673 4 1.5C4 2.327 4.673 3 5.5 3ZM5.5 1C5.7755 1 6 1.2245 6 1.5C6 1.7755 5.7755 2 5.5 2C5.2245 2 5 1.7755 5 1.5C5 1.2245 5.2245 1 5.5 1Z" fill="white"/>
<path d="M1.5 7C2.327 7 3 6.327 3 5.5C3 4.673 2.327 4 1.5 4C0.673 4 0 4.673 0 5.5C0 6.327 0.673 7 1.5 7ZM1.5 5C1.7755 5 2 5.2245 2 5.5C2 5.7755 1.7755 6 1.5 6C1.2245 6 1 5.7755 1 5.5C1 5.2245 1.2245 5 1.5 5Z" fill="white"/>
<path d="M20.9085 21.414L20.0065 21.846C20.0825 22.005 20.151 22.1685 20.21 22.336L20.2995 22.59L21.5 22.89V25.109L20.2995 25.409L20.21 25.663C20.151 25.831 20.083 25.994 20.0065 26.153L19.8905 26.3955L20.527 27.457L18.958 29.026L17.8965 28.3895L17.654 28.5055C17.495 28.5815 17.3315 28.65 17.164 28.709L16.91 28.7985L16.6095 30H14.3905L14.0905 28.7995L13.8365 28.71C13.6685 28.651 13.5055 28.583 13.3465 28.5065L13.104 28.3905L12.0425 29.027L10.1975 27.182L9.49051 27.889L11.8875 30.286L13.164 29.5205C13.1925 29.5325 13.221 29.5445 13.2495 29.556L13.6095 31H17.3905L17.7515 29.5565C17.78 29.545 17.8085 29.533 17.837 29.521L19.1135 30.2865L21.7865 27.6135L21.021 26.337C21.033 26.3085 21.045 26.28 21.0565 26.2515L22.5 25.8905V22.1095L21.0565 21.7485C21.0105 21.636 20.961 21.524 20.9085 21.414Z" fill="white"/>
<path d="M8.5 22.1095V25.8905L9.9435 26.2515C9.989 26.3645 10.0385 26.476 10.0915 26.586L10.9935 26.154C10.9175 25.995 10.849 25.8315 10.79 25.664L10.7005 25.41L9.5 25.1095V22.8905L10.7005 22.5905L10.79 22.3365C10.849 22.1685 10.917 22.0055 10.9935 21.8465L11.1095 21.604L10.473 20.5425L12.042 18.9735L13.1035 19.61L13.346 19.494C13.505 19.418 13.6685 19.3495 13.836 19.2905L14.09 19.201L14.39 18.0005H16.609L16.909 19.201L17.163 19.2905C17.331 19.3495 17.494 19.4175 17.653 19.494L17.8955 19.61L18.957 18.9735L20.802 20.8185L21.509 20.1115L19.112 17.7145L17.8355 18.48C17.807 18.468 17.7785 18.456 17.75 18.4445L17.3905 17H13.6095L13.2485 18.4435C13.22 18.455 13.1915 18.467 13.163 18.479L11.8865 17.7135L9.2135 20.3865L9.979 21.663C9.967 21.6915 9.955 21.72 9.9435 21.7485L8.5 22.1095Z" fill="white"/>
<path d="M28.997 19.0395C28.9975 19.0265 29 19.013 29 19C29 16.827 27.2575 15.057 25.097 15.005C24.696 14.3115 24.027 13.7945 23.2315 13.594C22.6495 12.057 21.161 11 19.5 11C18.8825 11 18.274 11.145 17.7205 11.421C16.9385 10.8245 15.9855 10.5 15 10.5C13.847 10.5 12.7445 10.9455 11.9125 11.7305C11.468 11.583 10.9935 11.5 10.5 11.5C8.278 11.5 6.393 13.13 6.057 15.3105C5.1405 15.723 4.4315 16.519 4.1425 17.518C1.828 17.7015 0 19.6395 0 22C0 24.481 2.019 26.5 4.5 26.5H7.5V25.5H4.5C2.57 25.5 1 23.93 1 22C1 20.07 2.57 18.5 4.5 18.5C5.5685 18.5 6.5645 18.979 7.233 19.8135L8.014 19.1885C7.3005 18.2975 6.2955 17.7285 5.189 17.5585C5.5635 16.6325 6.461 16 7.5 16C8.3895 16 9.219 16.479 9.6655 17.2495L10.5305 16.7485C9.906 15.67 8.745 15 7.5 15C7.379 15 7.26 15.0075 7.142 15.0195C7.5695 13.5515 8.926 12.5 10.5 12.5C12.43 12.5 14 14.07 14 16H15C15 14.402 14.16 12.9995 12.9015 12.201C13.5025 11.7505 14.2375 11.5 15 11.5C15.859 11.5 16.687 11.818 17.332 12.396L17.6105 12.6455L17.9285 12.449C18.4035 12.1555 18.947 12 19.5 12C20.5895 12 21.579 12.6075 22.104 13.529C20.6365 13.724 19.5 14.9805 19.5 16.5H20.5C20.5 15.397 21.397 14.5 22.5 14.5C23.603 14.5 24.5 15.397 24.5 16.5C24.5 17.603 23.603 18.5 22.5 18.5V19.5C24.1545 19.5 25.5 18.1545 25.5 16.5C25.5 16.343 25.484 16.19 25.461 16.039C26.7745 16.243 27.8075 17.2995 27.974 18.625C27.6615 18.5465 27.3365 18.5 27 18.5C25.5845 18.5 24.303 19.2245 23.5715 20.4385L24.428 20.9545C24.977 20.0435 25.938 19.5 27 19.5C28.6545 19.5 30 20.8455 30 22.5C30 24.1545 28.6545 25.5 27 25.5H23.5V26.5H27C29.2055 26.5 31 24.7055 31 22.5C31 21.022 30.1925 19.732 28.997 19.0395Z" fill="white"/>
<path d="M27.5 22.5H26.5V23.5H27.5V22.5Z" fill="white"/>
<path d="M15 20V20.0345C13.03 20.282 11.5 21.964 11.5 24C11.5 26.2055 13.2945 28 15.5 28C17.536 28 19.218 26.47 19.4655 24.5H19.5V23.5H19.4655C19.239 21.694 17.806 20.2615 16 20.0345V20H15ZM18.5 24C18.5 25.6545 17.1545 27 15.5 27C13.8455 27 12.5 25.6545 12.5 24C12.5 22.3455 13.8455 21 15.5 21C17.1545 21 18.5 22.3455 18.5 24Z" fill="white"/>
<path d="M5 23H4V24H5V23Z" fill="white"/>
<path d="M12.5 14.5H11.5V15.5H12.5V14.5Z" fill="white"/>
<path d="M18.5 14H17.5V15H18.5V14Z" fill="white"/>
</svg>
