<svg width="28" height="28" viewBox="0 0 28 28" fill="none" xmlns="http://www.w3.org/2000/svg">
<path d="M25.6341 26.0556C24.3341 27.3556 22.3341 27.3556 21.0341 26.0556L14.8341 19.8556L19.4341 15.2556L25.6341 21.4556C26.9341 22.6556 26.9341 24.7556 25.6341 26.0556Z" stroke="white" stroke-miterlimit="10" stroke-linecap="round" stroke-linejoin="round"/>
<path d="M4.03406 1.35556L1.03406 4.45556L3.33406 8.35556L7.13406 10.6556L15.6341 19.1556L18.7341 16.0556L10.2341 7.55556L7.93406 3.65556L4.03406 1.35556Z" stroke="white" stroke-miterlimit="10" stroke-linecap="round" stroke-linejoin="round"/>
<path d="M16.7341 13.9556L19.4341 11.2556C21.3341 11.9556 23.6341 11.6556 25.1341 10.0556C26.6341 8.55556 27.0341 6.25556 26.3341 4.35556L23.7341 6.95556L21.3341 6.35556L20.7341 3.95556L23.3341 1.35556C21.4341 0.655556 19.1341 0.955555 17.6341 2.55556C16.1341 4.05556 15.7341 6.35556 16.4341 8.25556L13.7341 10.9556" stroke="white" stroke-miterlimit="10" stroke-linejoin="round"/>
<path d="M10.5341 14.1555L8.23409 16.4555C6.33409 15.7555 4.03409 16.0555 2.53409 17.6555C1.03409 19.1555 0.634091 21.4555 1.33409 23.3555L3.93409 20.7555L6.33409 21.3555L6.93409 23.7555L4.33409 26.3555C6.23409 27.0555 8.53409 26.7555 10.0341 25.1555C11.5341 23.6555 11.9341 21.3555 11.2341 19.4555L13.6341 17.0555" stroke="white" stroke-miterlimit="10" stroke-linejoin="round"/>
</svg>
